<svg width="24" height="24" viewBox="0 0 24 24" fill="none" xmlns="http://www.w3.org/2000/svg">
<path d="M13.3149 16.8305C13.1146 16.6309 13.0185 16.3897 13.0265 16.1068C13.0351 15.824 13.1396 15.5828 13.34 15.3831L16.1695 12.5632H5.00161C4.71782 12.5632 4.47977 12.4674 4.28746 12.2757C4.09582 12.0847 4 11.8478 4 11.565C4 11.2822 4.09582 11.0449 4.28746 10.8533C4.47977 10.6623 4.71782 10.5668 5.00161 10.5668H16.1695L13.3149 7.72191C13.1146 7.52226 13.0144 7.28502 13.0144 7.01018C13.0144 6.73601 13.1146 6.4991 13.3149 6.29946C13.5152 6.09982 13.7533 6 14.0291 6C14.3042 6 14.5419 6.09982 14.7422 6.29946L19.3246 10.8663C19.4247 10.9661 19.4958 11.0742 19.5379 11.1907C19.5793 11.3071 19.6 11.4319 19.6 11.565C19.6 11.6981 19.5793 11.8229 19.5379 11.9393C19.4958 12.0558 19.4247 12.1639 19.3246 12.2637L14.7172 16.8555C14.5335 17.0385 14.3042 17.13 14.0291 17.13C13.7533 17.13 13.5152 17.0302 13.3149 16.8305Z" fill="black" fill-opacity="0.878431"/>
</svg>
