<svg width="49" height="48" viewBox="0 0 49 48" fill="none" xmlns="http://www.w3.org/2000/svg">
<path d="M35.6 18.35L42.65 11.25C43.05 10.85 43.525 10.65 44.075 10.65C44.625 10.65 45.1 10.85 45.5 11.25C45.9 11.65 46.1 12.125 46.1 12.675C46.1 13.225 45.9 13.7 45.5 14.1L37 22.6C36.6 23 36.1333 23.2 35.6 23.2C35.0667 23.2 34.6 23 34.2 22.6L29.95 18.35C29.55 17.95 29.35 17.475 29.35 16.925C29.35 16.375 29.55 15.9 29.95 15.5C30.35 15.1 30.8167 14.9 31.35 14.9C31.8833 14.9 32.35 15.1 32.75 15.5L35.6 18.35ZM18.5 24C16.3 24 14.4167 23.2167 12.85 21.65C11.2833 20.0833 10.5 18.2 10.5 16C10.5 13.8 11.2833 11.9167 12.85 10.35C14.4167 8.78333 16.3 8 18.5 8C20.7 8 22.5833 8.78333 24.15 10.35C25.7167 11.9167 26.5 13.8 26.5 16C26.5 18.2 25.7167 20.0833 24.15 21.65C22.5833 23.2167 20.7 24 18.5 24ZM2.5 36V34.4C2.5 33.2667 2.79167 32.225 3.375 31.275C3.95833 30.325 4.73333 29.6 5.7 29.1C7.76667 28.0667 9.86667 27.2917 12 26.775C14.1333 26.2583 16.3 26 18.5 26C20.7 26 22.8667 26.2583 25 26.775C27.1333 27.2917 29.2333 28.0667 31.3 29.1C32.2667 29.6 33.0417 30.325 33.625 31.275C34.2083 32.225 34.5 33.2667 34.5 34.4V36C34.5 37.1 34.1083 38.0417 33.325 38.825C32.5417 39.6083 31.6 40 30.5 40H6.5C5.4 40 4.45833 39.6083 3.675 38.825C2.89167 38.0417 2.5 37.1 2.5 36Z" fill="black"/>
</svg>
