<svg width="48" height="48" viewBox="0 0 48 48" fill="none" xmlns="http://www.w3.org/2000/svg">
<path d="M24 23C26.1667 23 28.0333 23.7333 29.6 25.2C31.1667 26.6667 32.1 28.4833 32.4 30.65C32.4667 31.05 32.65 31.375 32.95 31.625C33.25 31.875 33.6 32 34 32C34.4 32 34.7583 31.8667 35.075 31.6C35.3917 31.3333 35.5167 31 35.45 30.6C35.1167 27.6 33.875 25.0833 31.725 23.05C29.575 21.0167 27 20 24 20C21 20 18.425 21.0167 16.275 23.05C14.125 25.0833 12.8833 27.6 12.55 30.6C12.4833 31 12.6083 31.3333 12.925 31.6C13.2417 31.8667 13.6 32 14 32C14.4 32 14.75 31.875 15.05 31.625C15.35 31.375 15.5333 31.05 15.6 30.65C15.9 28.4833 16.8333 26.6667 18.4 25.2C19.9667 23.7333 21.8333 23 24 23ZM21.1 15.05C21.4 14.7833 21.5417 14.4417 21.525 14.025C21.5083 13.6083 21.3333 13.2667 21 13C20.6667 12.7333 20.3 12.6167 19.9 12.65C19.5 12.6833 19.1333 12.8333 18.8 13.1C18.2667 13.5667 17.7083 13.9583 17.125 14.275C16.5417 14.5917 15.9167 14.8667 15.25 15.1C14.85 15.2667 14.525 15.5167 14.275 15.85C14.025 16.1833 13.9333 16.5667 14 17C14.0667 17.4333 14.2667 17.7667 14.6 18C14.9333 18.2333 15.2833 18.2833 15.65 18.15C16.65 17.8167 17.6167 17.3917 18.55 16.875C19.4833 16.3583 20.3333 15.75 21.1 15.05ZM26.9 15.05C27.6667 15.75 28.5 16.35 29.4 16.85C30.3 17.35 31.25 17.7667 32.25 18.1C32.65 18.2333 33.025 18.1917 33.375 17.975C33.725 17.7583 33.9333 17.4333 34 17C34.0667 16.5667 33.9667 16.1833 33.7 15.85C33.4333 15.5167 33.1 15.2667 32.7 15.1C32.0667 14.8667 31.4583 14.5833 30.875 14.25C30.2917 13.9167 29.7333 13.5333 29.2 13.1C28.8667 12.8333 28.5 12.6833 28.1 12.65C27.7 12.6167 27.3333 12.7333 27 13C26.6667 13.2667 26.4917 13.6083 26.475 14.025C26.4583 14.4417 26.6 14.7833 26.9 15.05ZM24 44C21.2333 44 18.6333 43.475 16.2 42.425C13.7667 41.375 11.65 39.95 9.85 38.15C8.05 36.35 6.625 34.2333 5.575 31.8C4.525 29.3667 4 26.7667 4 24C4 21.2333 4.525 18.6333 5.575 16.2C6.625 13.7667 8.05 11.65 9.85 9.85C11.65 8.05 13.7667 6.625 16.2 5.575C18.6333 4.525 21.2333 4 24 4C26.7667 4 29.3667 4.525 31.8 5.575C34.2333 6.625 36.35 8.05 38.15 9.85C39.95 11.65 41.375 13.7667 42.425 16.2C43.475 18.6333 44 21.2333 44 24C44 26.7667 43.475 29.3667 42.425 31.8C41.375 34.2333 39.95 36.35 38.15 38.15C36.35 39.95 34.2333 41.375 31.8 42.425C29.3667 43.475 26.7667 44 24 44Z" fill="#FE0D0D"/>
</svg>
