<svg width="24" height="24" viewBox="0 0 24 24" fill="none" xmlns="http://www.w3.org/2000/svg">
<path d="M12.002 2.0293C11.2106 2.02905 10.4187 2.31708 9.8457 2.89258L8.16992 4.56836L11.8281 8.22852L15.6582 4.39453L14.1582 2.89258C13.5847 2.31708 12.7933 2.02955 12.002 2.0293ZM17.0723 5.81055L13.2422 9.64453L15.166 11.5684L19.0137 7.75195L17.0723 5.81055ZM6.75586 5.98438L2.89453 9.8457C2.31653 10.4197 2 11.184 2 12C2 12.816 2.31658 13.5803 2.89258 14.1523L4.40234 15.6621L10.4141 9.64453L6.75586 5.98438ZM20.4277 9.16602L16.5801 12.9844L19.4297 15.8359L21.1094 14.1562C21.6804 13.5822 21.997 12.8215 22 12.0215C22.007 11.1985 21.6894 10.4267 21.1074 9.84766L20.4277 9.16602ZM11.8281 11.0605L5.81641 17.0762L9.8457 21.1055C10.4197 21.6825 11.184 22 12 22C12.82 22 13.5863 21.6824 14.1523 21.1074L18.0137 17.248L11.8281 11.0605Z" fill="#4BB543"/>
</svg>
