<svg width="48" height="48" viewBox="0 0 48 48" fill="none" xmlns="http://www.w3.org/2000/svg">
<path d="M14 6C12.896 6 12 6.896 12 8V14.5508C9.48159 13.948 7.0589 13.1609 4.80469 12.168L3.19531 15.832C5.37927 16.7941 7.68252 17.5773 10.0547 18.207C9.61758 18.3087 9.19905 18.4454 8.80859 18.6406C7.8801 19.1049 7.12779 19.9247 6.76953 20.8203C6.05302 22.6116 6.55915 24.2787 7.14453 25.7422C8.23941 28.4794 10.0361 30.7311 10.2812 31.0352L14.2344 38.9453L14.2617 38.9922C15.0032 40.2901 16.1371 41.4037 17.457 42.3242C18.777 43.2447 20.2589 44 22 44H26C27.7408 44 29.219 43.2446 30.5391 42.3242C31.8591 41.4038 32.9965 40.2906 33.7383 38.9922L33.7656 38.9453L37.7188 31.0352C37.9639 30.7311 39.7606 28.4794 40.8555 25.7422C41.4408 24.2787 41.947 22.6116 41.2305 20.8203C40.8722 19.9247 40.1199 19.1049 39.1914 18.6406C38.8902 18.49 38.5709 18.379 38.2422 18.2852C40.4967 17.7057 42.6889 16.9962 44.7695 16.1289L43.2305 12.4375C40.9649 13.3819 38.53 14.1282 36 14.6953V8C36 6.896 35.104 6 34 6H14ZM12 18.6797C19.785 20.4251 28.2219 20.4486 36 18.8086V22C36.7917 22 37.2371 22.1361 37.4023 22.2188C37.5676 22.3014 37.5028 22.2628 37.5195 22.3047C37.553 22.3884 37.5592 23.2213 37.1445 24.2578C36.3153 26.3309 34.4375 28.75 34.4375 28.75L34.3047 28.918L31.6172 34.293C31.243 33.4168 30.6207 32.6423 29.7734 31.9414C28.4158 30.8183 26.4363 30 24 30C21.5637 30 19.5842 30.8183 18.2266 31.9414C17.3793 32.6423 16.757 33.4168 16.3828 34.293L13.6953 28.918L13.5625 28.75C13.5625 28.75 11.6847 26.3309 10.8555 24.2578C10.4408 23.2213 10.447 22.3884 10.4805 22.3047C10.4972 22.2628 10.4324 22.3013 10.5977 22.2188C10.7629 22.1361 11.2083 22 12 22V18.6797ZM16.0234 20C14.9054 20 14 21.0174 14 22.2734V23.7266C14 24.9826 14.9054 26 16.0234 26H16.6641C19.3321 26 22 24.3314 22 22.2734C22 21.0174 21.0965 20 19.9805 20H16.0234ZM27.957 20C26.875 20 26 21.0174 26 22.2734C26 24.3314 28.5821 26 31.1641 26H31.793C32.875 26 33.75 24.9826 33.75 23.7266V22.2734C33.75 21.0174 32.875 20 31.793 20H27.957ZM24 34C25.5637 34 26.5842 34.4921 27.2266 35.0234C27.8689 35.5548 28 36.2738 28 36V38H20V36C20 36.2738 20.1311 35.5548 20.7734 35.0234C21.4158 34.4921 22.4363 34 24 34Z" fill="#FDC909"/>
</svg>
