<svg width="48" height="48" viewBox="0 0 48 48" fill="none" xmlns="http://www.w3.org/2000/svg">
<path d="M31 22C31.8667 22 32.5833 21.7167 33.15 21.15C33.7167 20.5833 34 19.8667 34 19C34 18.1333 33.7167 17.4167 33.15 16.85C32.5833 16.2833 31.8667 16 31 16C30.1333 16 29.4167 16.2833 28.85 16.85C28.2833 17.4167 28 18.1333 28 19C28 19.8667 28.2833 20.5833 28.85 21.15C29.4167 21.7167 30.1333 22 31 22ZM17 22C17.8667 22 18.5833 21.7167 19.15 21.15C19.7167 20.5833 20 19.8667 20 19C20 18.1333 19.7167 17.4167 19.15 16.85C18.5833 16.2833 17.8667 16 17 16C16.1333 16 15.4167 16.2833 14.85 16.85C14.2833 17.4167 14 18.1333 14 19C14 19.8667 14.2833 20.5833 14.85 21.15C15.4167 21.7167 16.1333 22 17 22ZM24 44C21.2333 44 18.6333 43.4747 16.2 42.424C13.7667 41.3747 11.65 39.95 9.85 38.15C8.05 36.35 6.62533 34.2333 5.576 31.8C4.52533 29.3667 4 26.7667 4 24C4 21.2333 4.52533 18.6333 5.576 16.2C6.62533 13.7667 8.05 11.65 9.85 9.85C11.65 8.05 13.7667 6.62467 16.2 5.574C18.6333 4.52467 21.2333 4 24 4C26.7667 4 29.3667 4.52467 31.8 5.574C34.2333 6.62467 36.35 8.05 38.15 9.85C39.95 11.65 41.3747 13.7667 42.424 16.2C43.4747 18.6333 44 21.2333 44 24C44 26.7667 43.4747 29.3667 42.424 31.8C41.3747 34.2333 39.95 36.35 38.15 38.15C36.35 39.95 34.2333 41.3747 31.8 42.424C29.3667 43.4747 26.7667 44 24 44ZM15.5 34H32.5C32.9667 34 33.3 33.8413 33.5 33.524C33.7 33.208 33.6833 32.85 33.45 32.45C32.4833 30.8167 31.1833 29.5 29.55 28.5C27.9167 27.5 26.0667 27 24 27C21.9333 27 20.0833 27.5 18.45 28.5C16.8167 29.5 15.5167 30.8167 14.55 32.45C14.3167 32.85 14.3 33.208 14.5 33.524C14.7 33.8413 15.0333 34 15.5 34Z" fill="#E3C531"/>
</svg>
