<svg width="48" height="48" viewBox="0 0 48 48" fill="none" xmlns="http://www.w3.org/2000/svg">
<path d="M24 6C14.083 6 6 14.083 6 24C6 34.8 12.2852 45.0273 12.2852 45.0273L15.7148 42.9727C15.7148 42.9727 10 33.2 10 24C10 16.245 16.245 10 24 10C31.755 10 38 16.245 38 24C38 25.1301 37.1301 26 36 26C34.8699 26 34 25.1301 34 24C34 18.501 29.499 14 24 14C18.501 14 14 18.501 14 24C14 37.3333 27.1055 43.7891 27.1055 43.7891L28.8945 40.2109C28.8945 40.2109 18 34.6667 18 24C18 20.663 20.663 18 24 18C27.337 18 30 20.663 30 24C30 27.2899 32.7101 30 36 30C39.2899 30 42 27.2899 42 24C42 14.083 33.917 6 24 6ZM22 22C22 25.4444 23.1044 29.8578 26.2227 33.543C29.3409 37.2282 34.5238 40 42 40V36C35.4762 36 31.6591 33.7718 29.2773 30.957C26.8956 28.1422 26 24.5556 26 22H22Z" fill="#4BB543"/>
</svg>
