<svg width="48" height="48" viewBox="0 0 48 48" fill="none" xmlns="http://www.w3.org/2000/svg">
<g clip-path="url(#clip0_2002_1762)">
<path d="M23.98 4C12.94 4 4 12.96 4 24C4 35.04 12.94 44 23.98 44C35.04 44 44 35.04 44 24C44 12.96 35.04 4 23.98 4ZM17 16C18.66 16 20 17.34 20 19C20 20.66 18.66 22 17 22C15.34 22 14 20.66 14 19C14 17.34 15.34 16 17 16ZM24 36C19.44 36 15.56 32.68 14 28H34C32.44 32.68 28.56 36 24 36ZM31 22C29.34 22 28 20.66 28 19C28 17.34 29.34 16 31 16C32.66 16 34 17.34 34 19C34 20.66 32.66 22 31 22Z" fill="#4BB543"/>
</g>
<defs>
<clipPath id="clip0_2002_1762">
<rect width="48" height="48" fill="white"/>
</clipPath>
</defs>
</svg>
