<svg width="24" height="24" viewBox="0 0 24 24" fill="none" xmlns="http://www.w3.org/2000/svg">
<g clip-path="url(#clip0_2048_1095)">
<path d="M22 9V7H20V9H18V11H20V13H22V11H24V9H22Z" fill="white"/>
<path d="M8 12C10.21 12 12 10.21 12 8C12 5.79 10.21 4 8 4C5.79 4 4 5.79 4 8C4 10.21 5.79 12 8 12Z" fill="white"/>
<path d="M8 13C5.33 13 0 14.34 0 17V20H16V17C16 14.34 10.67 13 8 13Z" fill="white"/>
<path d="M12.5117 4.05078C13.4317 5.11078 14.0017 6.49078 14.0017 8.00078C14.0017 9.51078 13.4317 10.8908 12.5117 11.9508C14.4717 11.7008 16.0017 10.0408 16.0017 8.00078C16.0017 5.96078 14.4717 4.30078 12.5117 4.05078Z" fill="white"/>
<path d="M16.5312 13.8301C17.4212 14.6601 18.0012 15.7001 18.0012 17.0001V20.0001H20.0012V17.0001C20.0012 15.5501 18.4112 14.4901 16.5312 13.8301Z" fill="white"/>
</g>
<defs>
<clipPath id="clip0_2048_1095">
<rect width="24" height="24" fill="white"/>
</clipPath>
</defs>
</svg>
