<svg width="64" height="64" viewBox="0 0 64 64" fill="none" xmlns="http://www.w3.org/2000/svg">
<g clip-path="url(#clip0_1613_1834)">
<path d="M31.9987 5.33337C17.2787 5.33337 5.33203 17.28 5.33203 32C5.33203 46.72 17.2787 58.6667 31.9987 58.6667C46.7187 58.6667 58.6654 46.72 58.6654 32C58.6654 17.28 46.7187 5.33337 31.9987 5.33337ZM21.332 46.6667C17.652 46.6667 14.6654 43.68 14.6654 40C14.6654 36.32 17.652 33.3334 21.332 33.3334C25.012 33.3334 27.9987 36.32 27.9987 40C27.9987 43.68 25.012 46.6667 21.332 46.6667ZM25.332 21.3334C25.332 17.6534 28.3187 14.6667 31.9987 14.6667C35.6787 14.6667 38.6654 17.6534 38.6654 21.3334C38.6654 25.0134 35.6787 28 31.9987 28C28.3187 28 25.332 25.0134 25.332 21.3334ZM42.6654 46.6667C38.9854 46.6667 35.9987 43.68 35.9987 40C35.9987 36.32 38.9854 33.3334 42.6654 33.3334C46.3454 33.3334 49.332 36.32 49.332 40C49.332 43.68 46.3454 46.6667 42.6654 46.6667Z" fill="black"/>
</g>
<defs>
<clipPath id="clip0_1613_1834">
<rect width="64" height="64" fill="white"/>
</clipPath>
</defs>
</svg>
