<svg width="24" height="24" viewBox="0 0 24 24" fill="none" xmlns="http://www.w3.org/2000/svg">
<path d="M11.9982 2C11.2025 2 10.4395 2.31607 9.87688 2.87868C9.31427 3.44129 8.9982 4.20435 8.9982 5C8.9982 5.79565 9.31427 6.55871 9.87688 7.12132C10.4395 7.68393 11.2025 8 11.9982 8C12.7938 8 13.5569 7.68393 14.1195 7.12132C14.6821 6.55871 14.9982 5.79565 14.9982 5C14.9982 4.20435 14.6821 3.44129 14.1195 2.87868C13.5569 2.31607 12.7938 2 11.9982 2ZM9.18374 8.99805C5.78401 8.99805 2.99624 11.7878 2.99624 15.1875V20.5C2.99343 20.6988 3.03015 20.8961 3.10428 21.0806C3.1784 21.265 3.28844 21.4329 3.428 21.5745C3.56757 21.716 3.73388 21.8284 3.91726 21.9051C4.10065 21.9819 4.29746 22.0214 4.49624 22.0214C4.69503 22.0214 4.89184 21.9819 5.07522 21.9051C5.25861 21.8284 5.42492 21.716 5.56448 21.5745C5.70405 21.4329 5.81409 21.265 5.88821 21.0806C5.96233 20.8961 5.99905 20.6988 5.99624 20.5V15.1875C5.99624 13.4092 7.40548 11.998 9.18374 11.998C9.8913 11.998 10.5653 12.2571 11.0373 12.6504C11.3068 12.8748 11.6465 12.9978 11.9972 12.9978C12.348 12.9978 12.6876 12.8748 12.9572 12.6504C13.4286 12.2575 14.1045 11.998 14.8107 11.998C16.589 11.998 17.9982 13.4092 17.9982 15.1875V20.5C17.9954 20.6988 18.0321 20.8961 18.1062 21.0806C18.1803 21.265 18.2904 21.4329 18.43 21.5745C18.5695 21.716 18.7358 21.8284 18.9192 21.9051C19.1026 21.9819 19.2994 22.0214 19.4982 22.0214C19.697 22.0214 19.8938 21.9819 20.0772 21.9051C20.2606 21.8284 20.4269 21.716 20.5664 21.5745C20.706 21.4329 20.816 21.265 20.8902 21.0806C20.9643 20.8961 21.001 20.6988 20.9982 20.5V15.1875C20.9982 11.7878 18.2104 8.99805 14.8107 8.99805C13.7866 8.99805 12.8519 9.33112 11.9982 9.79883C11.1443 9.33064 10.209 8.99805 9.18374 8.99805ZM9.47476 13.9785C9.07728 13.9847 8.69851 14.1485 8.42165 14.4337C8.1448 14.719 7.9925 15.1025 7.9982 15.5V20.5C7.99824 20.8978 8.15628 21.2793 8.43758 21.5606C8.71888 21.8419 9.10038 22 9.4982 22H14.4982C14.896 22 15.2775 21.8419 15.5588 21.5606C15.8401 21.2793 15.9982 20.8978 15.9982 20.5V15.5C16.001 15.3012 15.9643 15.1039 15.8902 14.9194C15.816 14.735 15.706 14.5671 15.5664 14.4255C15.4269 14.284 15.2606 14.1716 15.0772 14.0949C14.8938 14.0181 14.697 13.9786 14.4982 13.9786C14.2994 13.9786 14.1026 14.0181 13.9192 14.0949C13.7358 14.1716 13.5695 14.284 13.43 14.4255C13.2904 14.5671 13.1803 14.735 13.1062 14.9194C13.0321 15.1039 12.9954 15.3012 12.9982 15.5V19H10.9982V15.5C11.0011 15.2992 10.9636 15.0999 10.8881 14.9139C10.8125 14.7279 10.7004 14.5589 10.5583 14.417C10.4162 14.2752 10.2471 14.1632 10.061 14.0879C9.87487 14.0126 9.67552 13.9754 9.47476 13.9785Z" fill="#4BB543"/>
</svg>
