<svg width="49" height="48" viewBox="0 0 49 48" fill="none" xmlns="http://www.w3.org/2000/svg">
<path d="M24.5 4C22.9087 4 21.3826 4.63214 20.2574 5.75736C19.1321 6.88258 18.5 8.4087 18.5 10C18.5 11.5913 19.1321 13.1174 20.2574 14.2426C21.3826 15.3679 22.9087 16 24.5 16C26.0913 16 27.6174 15.3679 28.7426 14.2426C29.8679 13.1174 30.5 11.5913 30.5 10C30.5 8.4087 29.8679 6.88258 28.7426 5.75736C27.6174 4.63214 26.0913 4 24.5 4ZM19.3711 17.9961C12.2955 17.9961 6.49609 23.7994 6.49609 30.875V44H12.4961V30.875C12.4961 27.0426 15.5387 23.9961 19.3711 23.9961C20.6675 23.9961 21.8577 24.3734 22.9336 25.0312L24.4961 25.9883L26.0625 25.0312C27.1373 24.374 28.3312 23.9961 29.625 23.9961C33.4574 23.9961 36.5 27.0426 36.5 30.875V44H42.5V30.875C42.5 23.7994 36.7006 17.9961 29.625 17.9961C27.7684 17.9961 26.0727 18.5111 24.5 19.2148C22.9269 18.5103 21.23 17.9961 19.3711 17.9961ZM19.4531 27.957C18.6582 27.9694 17.9006 28.2969 17.3469 28.8675C16.7932 29.438 16.4886 30.205 16.5 31V44H32.5V31C32.5056 30.6025 32.4322 30.2078 32.2839 29.8389C32.1357 29.47 31.9156 29.1342 31.6365 28.8511C31.3573 28.568 31.0247 28.3432 30.658 28.1897C30.2912 28.0363 29.8976 27.9573 29.5 27.9573C29.1024 27.9573 28.7088 28.0363 28.342 28.1897C27.9753 28.3432 27.6427 28.568 27.3635 28.8511C27.0844 29.1342 26.8643 29.47 26.7161 29.8389C26.5678 30.2078 26.4944 30.6025 26.5 31V38H22.5V31C22.5058 30.5985 22.4309 30.1999 22.2797 29.8278C22.1286 29.4558 21.9043 29.1178 21.6202 28.8341C21.336 28.5503 20.9978 28.3265 20.6256 28.1758C20.2533 28.0252 19.8546 27.9508 19.4531 27.957Z" fill="black"/>
</svg>
