<svg width="24" height="24" viewBox="0 0 24 24" fill="none" xmlns="http://www.w3.org/2000/svg">
<g clip-path="url(#clip0_1622_2823)">
<path d="M18.39 14.56C16.71 13.7 14.53 13 12 13C9.47 13 7.29 13.7 5.61 14.56C4.61 15.07 4 16.1 4 17.22V20H20V17.22C20 16.1 19.39 15.07 18.39 14.56Z" fill="#4BB543"/>
<path d="M9.7792 12H14.2192C15.4292 12 16.3592 10.94 16.1992 9.74L15.8792 7.29C15.5692 5.39 13.9192 4 11.9992 4C10.0792 4 8.4292 5.39 8.1192 7.29L7.7992 9.74C7.6392 10.94 8.5692 12 9.7792 12Z" fill="#4BB543"/>
</g>
<defs>
<clipPath id="clip0_1622_2823">
<rect width="24" height="24" fill="white"/>
</clipPath>
</defs>
</svg>
